<svg id="Layer_1" data-name="Layer 1" xmlns="http://www.w3.org/2000/svg" viewBox="0 0 667 250"><defs><style>.cls-1{fill:#00b050;}.cls-2{fill:#404040;}</style></defs><title>Artboard 8</title><path class="cls-1" d="M55.82,92h0a32,32,0,0,0-17.54-5,26.63,26.63,0,0,0-9.47,1.71A30.84,30.84,0,0,0,21,93l-.72.57V72a10.1,10.1,0,0,0-2.87-7.29,9.78,9.78,0,0,0-7.27-3,9.79,9.79,0,0,0-7.28,3A10.13,10.13,0,0,0,0,72v81.41a10.05,10.05,0,0,0,2.9,7.38,9.88,9.88,0,0,0,7.25,2.89,9.78,9.78,0,0,0,7.27-3,9.93,9.93,0,0,0,2.22-3.48l0,0a33.58,33.58,0,0,0,8.58,4.61,30.1,30.1,0,0,0,10.54,1.83,30.92,30.92,0,0,0,17.18-5,35.34,35.34,0,0,0,12.08-13.6,42.47,42.47,0,0,0,4.48-19.82,42.24,42.24,0,0,0-4.48-19.77A35.21,35.21,0,0,0,55.82,92Zm-2.93,33.3a23,23,0,0,1-2.17,10.06,17,17,0,0,1-5.8,6.9,14.79,14.79,0,0,1-8.59,2.45,15.09,15.09,0,0,1-8.67-2.46,16.82,16.82,0,0,1-5.85-6.9,22.9,22.9,0,0,1-2.17-10,22.53,22.53,0,0,1,2.16-10,17.17,17.17,0,0,1,5.86-6.79A15.16,15.16,0,0,1,36.33,106a14.86,14.86,0,0,1,8.59,2.44,17.26,17.26,0,0,1,5.81,6.8A22.53,22.53,0,0,1,52.89,125.26Z"/><path class="cls-1" d="M138.5,97.89h0a36.69,36.69,0,0,0-11.15-8A32,32,0,0,0,113.85,87a34.4,34.4,0,0,0-17.39,4.73,35.91,35.91,0,0,0-13.25,13.51c-3.35,5.82-5,12.91-5,21.08a38.93,38.93,0,0,0,4.64,19,34.27,34.27,0,0,0,13.35,13.43,42.76,42.76,0,0,0,33.65,2.64A32.44,32.44,0,0,0,140,156c3-2.36,4.51-5.11,4.51-8.19a8.91,8.91,0,0,0-9-8.85,12.27,12.27,0,0,0-5.47,1.42l-.07,0c-1,.53-2.06,1.17-3.31,2a14.73,14.73,0,0,1-4,1.6,28.09,28.09,0,0,1-7,.7,17.59,17.59,0,0,1-15.27-8.77,15.66,15.66,0,0,1-1.33-2.83h39.68a10.63,10.63,0,0,0,7-2.49A9,9,0,0,0,149,123.8v-.1a35.84,35.84,0,0,0-2.85-14.15A38.68,38.68,0,0,0,138.5,97.89ZM99.16,115.37a14.61,14.61,0,0,1,3.27-5.55,11.58,11.58,0,0,1,4.85-2.91,22.34,22.34,0,0,1,6.57-.93,14.73,14.73,0,0,1,6.54,1.51,15,15,0,0,1,5.16,4.09,9.53,9.53,0,0,1,1.89,3.79Z"/><path class="cls-1" d="M211.28,91.9h0a39.19,39.19,0,0,0-38,0,37.05,37.05,0,0,0-13.56,13.56,39,39,0,0,0-5,19.93,39,39,0,0,0,5,19.92,36.45,36.45,0,0,0,13.58,13.51,39.69,39.69,0,0,0,38,0,36.52,36.52,0,0,0,13.58-13.51,39,39,0,0,0,5.05-19.92,39,39,0,0,0-5.05-19.93A37.08,37.08,0,0,0,211.28,91.9Zm-1.67,33.49a21,21,0,0,1-2.37,10.2,17.57,17.57,0,0,1-6.28,6.7,17,17,0,0,1-17.37,0,17.52,17.52,0,0,1-6.29-6.7,23.48,23.48,0,0,1,0-20.54,17.39,17.39,0,0,1,6.28-6.69,17,17,0,0,1,17.37,0,17.54,17.54,0,0,1,6.28,6.69A21.4,21.4,0,0,1,209.61,125.39Z"/><path class="cls-2" d="M294.59,92h0a32,32,0,0,0-17.54-5,26.63,26.63,0,0,0-9.47,1.71,30.6,30.6,0,0,0-7.79,4.3c-.55.42-1.08.85-1.57,1.27a10.4,10.4,0,0,0-2-3,10.35,10.35,0,0,0-14.54,0,10.08,10.08,0,0,0-2.88,7.29V178a10.07,10.07,0,0,0,2.9,7.38,9.88,9.88,0,0,0,7.25,2.89,9.76,9.76,0,0,0,7.27-3,10.11,10.11,0,0,0,2.88-7.29V157.68a34,34,0,0,0,7.95,4.15,30.15,30.15,0,0,0,10.55,1.83,30.91,30.91,0,0,0,17.17-5,35.45,35.45,0,0,0,12.09-13.6,42.6,42.6,0,0,0,4.48-19.82,42.13,42.13,0,0,0-4.49-19.77A35.13,35.13,0,0,0,294.59,92Zm-2.93,33.3a23.14,23.14,0,0,1-2.16,10.06,17,17,0,0,1-5.81,6.9,14.79,14.79,0,0,1-8.59,2.45,15,15,0,0,1-8.66-2.46,16.91,16.91,0,0,1-5.86-6.9,23,23,0,0,1-2.16-10,22.53,22.53,0,0,1,2.15-10,17.12,17.12,0,0,1,5.87-6.79A15.1,15.1,0,0,1,275.1,106a14.86,14.86,0,0,1,8.59,2.44,17.36,17.36,0,0,1,5.82,6.8A22.53,22.53,0,0,1,291.66,125.26Z"/><path class="cls-2" d="M379.32,87a9.79,9.79,0,0,0-7.27,3A10.07,10.07,0,0,0,370,93.08a33.49,33.49,0,0,0-8.26-4.27,32.49,32.49,0,0,0-11-1.83,31,31,0,0,0-17.1,5,35.2,35.2,0,0,0-12.16,13.6,42.61,42.61,0,0,0-4.48,19.83,42.26,42.26,0,0,0,4.48,19.69,34.74,34.74,0,0,0,12.3,13.61,32.08,32.08,0,0,0,17.47,5,27.73,27.73,0,0,0,10-1.77,32.94,32.94,0,0,0,7.9-4.27l1.11-.87a10.49,10.49,0,0,0,1.86,2.63,10.35,10.35,0,0,0,14.55,0,10.11,10.11,0,0,0,2.87-7.29V97.26a10,10,0,0,0-2.9-7.38A9.88,9.88,0,0,0,379.32,87Zm-9.49,38.41a22.63,22.63,0,0,1-2.16,10h0a16.72,16.72,0,0,1-5.86,6.84,15.07,15.07,0,0,1-8.67,2.46,14.85,14.85,0,0,1-8.54-2.46,17,17,0,0,1-5.86-6.84,22.63,22.63,0,0,1-2.16-10,22.93,22.93,0,0,1,2.16-10.11,17,17,0,0,1,5.86-6.85,14.92,14.92,0,0,1,8.54-2.45,15.16,15.16,0,0,1,8.67,2.45,16.88,16.88,0,0,1,5.86,6.85A22.93,22.93,0,0,1,369.83,125.39Z"/><path class="cls-2" d="M448.05,89.73h0A12.3,12.3,0,0,0,440,87a30,30,0,0,0-7,.85,25.36,25.36,0,0,0-6.72,2.64,24.29,24.29,0,0,0-5.16,3.93A10.05,10.05,0,0,0,419,91.26a10.35,10.35,0,0,0-14.54,0,10.08,10.08,0,0,0-2.88,7.29v53.53a10.08,10.08,0,0,0,2.88,7.29,10.33,10.33,0,0,0,14.54,0,10.08,10.08,0,0,0,2.88-7.29V121.37a21.67,21.67,0,0,1,1.09-7.3,15.76,15.76,0,0,1,2.8-5,10.7,10.7,0,0,1,3.61-2.83,9,9,0,0,1,3.74-.89,8.79,8.79,0,0,1,3.62.7,13.18,13.18,0,0,0,5.45,1.12,9.63,9.63,0,0,0,6.34-2.45c2-1.72,3-4.39,3-8A8.88,8.88,0,0,0,448.05,89.73Z"/><path class="cls-2" d="M467.08,88.28a9.72,9.72,0,0,0-7.27,3,10.08,10.08,0,0,0-2.88,7.29v53.53a10.08,10.08,0,0,0,2.88,7.29,10.33,10.33,0,0,0,14.54,0,10.08,10.08,0,0,0,2.88-7.29V98.56a10.12,10.12,0,0,0-2.88-7.3A9.76,9.76,0,0,0,467.08,88.28Z"/><path class="cls-2" d="M474.9,66.36h0c-1.65-1.3-4.21-1.93-7.81-1.93-3.28,0-5.73.58-7.48,1.77-2,1.37-3.05,3.75-3.05,7.08v2.46c0,3.18.91,5.5,2.71,6.92s4.17,1.93,7.69,1.93,6-.58,7.71-1.79c2-1.37,2.95-3.75,2.95-7.06V73.28C477.61,70.11,476.7,67.78,474.9,66.36Z"/><path class="cls-2" d="M499.36,139.74h-1.69a9.36,9.36,0,0,0-10.15,10.15v2.2a9.37,9.37,0,0,0,10.15,10.15h1.69a9.36,9.36,0,0,0,10.14-10.15v-2.2a9.35,9.35,0,0,0-10.14-10.15Z"/><path class="cls-2" d="M576.53,92h0A32,32,0,0,0,559,87a26.63,26.63,0,0,0-9.47,1.71,30.66,30.66,0,0,0-7.8,4.3c-.55.42-1.07.85-1.57,1.28a10.08,10.08,0,0,0-2-3,10.36,10.36,0,0,0-14.55,0,10.11,10.11,0,0,0-2.87,7.29V178a10,10,0,0,0,2.9,7.38,10.45,10.45,0,0,0,14.52-.09A10.1,10.1,0,0,0,541,178V157.68a34,34,0,0,0,8,4.15,30.1,30.1,0,0,0,10.54,1.83,30.92,30.92,0,0,0,17.18-5,35.34,35.34,0,0,0,12.08-13.6,42.6,42.6,0,0,0,4.48-19.82,42.24,42.24,0,0,0-4.48-19.77A35.21,35.21,0,0,0,576.53,92Zm-2.93,33.3a23,23,0,0,1-2.17,10.06h0a17.09,17.09,0,0,1-5.8,6.9,14.79,14.79,0,0,1-8.59,2.45,15.07,15.07,0,0,1-8.67-2.46,16.85,16.85,0,0,1-5.85-6.89,23,23,0,0,1-2.17-10.06,22.53,22.53,0,0,1,2.16-10,17.1,17.1,0,0,1,5.86-6.79A15.16,15.16,0,0,1,557,106a14.86,14.86,0,0,1,8.59,2.44,17.26,17.26,0,0,1,5.81,6.8A22.53,22.53,0,0,1,573.6,125.26Z"/><path class="cls-2" d="M663.9,144.77l-21-22.91,17.76-16.34c2.6-2.27,3.92-4.83,3.92-7.61a9.66,9.66,0,0,0-2.81-6.38,9.06,9.06,0,0,0-7-3.25,10.12,10.12,0,0,0-7.35,3.13L623.7,114.3V72a10.1,10.1,0,0,0-2.87-7.29,10.37,10.37,0,0,0-14.55,0A10.15,10.15,0,0,0,603.41,72v80.11a10.11,10.11,0,0,0,2.87,7.29,10.35,10.35,0,0,0,14.55,0,10.07,10.07,0,0,0,2.87-7.29v-12.6l3.9-3.58,21.66,23a9.69,9.69,0,0,0,7.46,3.38,10.78,10.78,0,0,0,6.74-2.66,9.17,9.17,0,0,0,3.54-7.36A10.59,10.59,0,0,0,663.9,144.77Z"/></svg>